<?xml version="1.0" encoding="UTF-8"?>
<svg width="12px" height="6px" viewBox="0 0 12 6" version="1.1" xmlns="http://www.w3.org/2000/svg" xmlns:xlink="http://www.w3.org/1999/xlink">
    <title>三角形</title>
    <g id="页面-1" stroke="none" stroke-width="1" fill="none" fill-rule="evenodd" opacity="0.75">
        <g id="02-拨号键盘-黏贴" transform="translate(-182.000000, -148.000000)" fill="#000000">
            <g id="编组-17" transform="translate(162.000000, 148.000000)">
                <path d="M27.3678823,1.46515388 C27.399252,1.49456306 27.4296652,1.52497625 27.4590744,1.55634604 L31.624,5.99922179 L48,6 C50.209139,6 52,7.790861 52,10 L52,31 C52,33.209139 50.209139,35 48,35 L4,35 C1.790861,35 2.705415e-16,33.209139 0,31 L0,10 C-2.705415e-16,7.790861 1.790861,6 4,6 L20.375,5.99922179 L24.5409256,1.55634604 C25.2963861,0.750521491 26.5620577,0.709693374 27.3678823,1.46515388 Z" id="形状结合"></path>
            </g>
        </g>
    </g>
</svg>