<svg width="24" height="24" xmlns="http://www.w3.org/2000/svg"><g fill="none" fill-rule="evenodd"><path fill="#F3F3FA" d="M-16-54h375v841H-16z"/><path fill="#FFF" d="M-16-54h375v88H-16z"/><g transform="translate(316.5 -39.167)"><rect stroke="#FFF" opacity=".35" x=".5" y=".5" width="21" height="10.333" rx="2"/><path d="M23 3.667v4a2.17 2.17 0 0 0 0-4" fill="#FFF" opacity=".593"/><rect fill="#FFF" x="2" y="2" width="18" height="7.333" rx="2"/></g><path d="M303.83-36.892a8.64 8.64 0 0 1 5.953 2.378.308.308 0 0 0 .434-.003l1.156-1.167a.322.322 0 0 0-.003-.456 10.897 10.897 0 0 0-15.08 0 .322.322 0 0 0-.003.456l1.156 1.167c.12.12.313.121.434.003a8.641 8.641 0 0 1 5.953-2.378Zm0 3.796c1.218 0 2.392.452 3.294 1.27a.31.31 0 0 0 .434-.006L308.712-33a.322.322 0 0 0-.004-.459 7.16 7.16 0 0 0-9.753 0 .322.322 0 0 0-.004.459l1.154 1.167a.31.31 0 0 0 .434.005 4.907 4.907 0 0 1 3.291-1.27Zm2.22 2.784a.314.314 0 0 0-.01-.457 3.422 3.422 0 0 0-4.42 0 .314.314 0 0 0-.009.457l1.998 2.016a.312.312 0 0 0 .443 0l1.997-2.016Zm-30.883-1.855h1a1 1 0 0 1 1 1v2a1 1 0 0 1-1 1h-1a1 1 0 0 1-1-1v-2a1 1 0 0 1 1-1Zm4.666-2h1a1 1 0 0 1 1 1v4a1 1 0 0 1-1 1h-1a1 1 0 0 1-1-1v-4a1 1 0 0 1 1-1ZM284.5-36.5h1a1 1 0 0 1 1 1v6.333a1 1 0 0 1-1 1h-1a1 1 0 0 1-1-1V-35.5a1 1 0 0 1 1-1Zm4.667-2.333h1a1 1 0 0 1 1 1v8.666a1 1 0 0 1-1 1h-1a1 1 0 0 1-1-1v-8.666a1 1 0 0 1 1-1Z" fill="#FFF"/><text transform="translate(1.5 -40.5)" fill="#FFF" font-family="Helvetica" font-size="14" letter-spacing="-.28">
                                <tspan x="13.796" y="14">9:4</tspan>
                                <tspan x="32.418" y="14">1</tspan>
                            </text><g transform="translate(316.5 -39.167)"><rect stroke="#000" opacity=".35" x=".5" y=".5" width="21" height="10.333" rx="2"/><path d="M23 3.667v4a2.17 2.17 0 0 0 0-4" fill="#000" opacity=".4"/><rect fill="#000" x="2" y="2" width="18" height="7.333" rx="2"/></g><path d="M303.83-36.892a8.64 8.64 0 0 1 5.953 2.378.308.308 0 0 0 .434-.003l1.156-1.167a.322.322 0 0 0-.003-.456 10.897 10.897 0 0 0-15.08 0 .322.322 0 0 0-.003.456l1.156 1.167c.12.12.313.121.434.003a8.641 8.641 0 0 1 5.953-2.378Zm0 3.796c1.218 0 2.392.452 3.294 1.27a.31.31 0 0 0 .434-.006L308.712-33a.322.322 0 0 0-.004-.459 7.16 7.16 0 0 0-9.753 0 .322.322 0 0 0-.004.459l1.154 1.167a.31.31 0 0 0 .434.005 4.907 4.907 0 0 1 3.291-1.27Zm2.22 2.784a.314.314 0 0 0-.01-.457 3.422 3.422 0 0 0-4.42 0 .314.314 0 0 0-.009.457l1.998 2.016a.312.312 0 0 0 .443 0l1.997-2.016Zm-30.883-1.855h1a1 1 0 0 1 1 1v2a1 1 0 0 1-1 1h-1a1 1 0 0 1-1-1v-2a1 1 0 0 1 1-1Zm4.666-2h1a1 1 0 0 1 1 1v4a1 1 0 0 1-1 1h-1a1 1 0 0 1-1-1v-4a1 1 0 0 1 1-1ZM284.5-36.5h1a1 1 0 0 1 1 1v6.333a1 1 0 0 1-1 1h-1a1 1 0 0 1-1-1V-35.5a1 1 0 0 1 1-1Zm4.667-2.333h1a1 1 0 0 1 1 1v8.666a1 1 0 0 1-1 1h-1a1 1 0 0 1-1-1v-8.666a1 1 0 0 1 1-1Z" fill="#000"/><text transform="translate(1.5 -40.5)" fill="#000" font-family="PingFangSC-Regular, PingFang SC" font-size="14">
                                <tspan x="12.937" y="15">9:41</tspan>
                            </text><text font-family="PingFangSC-Medium, PingFang SC" font-size="17" font-weight="400" fill="#333" transform="translate(-16 -54)">
                    <tspan x="171" y="72">签退</tspan>
                </text><path d="M18.157 16.243 13.914 12l4.243-4.243a1 1 0 0 0-1.414-1.414L12.5 10.586 8.257 6.343a1 1 0 0 0-1.414 1.414L11.086 12l-4.243 4.243a1 1 0 1 0 1.414 1.414l4.243-4.243 4.243 4.243a1 1 0 1 0 1.414-1.414" fill="#333"/><path fill="#FFF" d="M-16-54h375v88H-16z"/><path d="M18.157 16.243 13.914 12l4.243-4.243a1 1 0 0 0-1.414-1.414L12.5 10.586 8.257 6.343a1 1 0 0 0-1.414 1.414L11.086 12l-4.243 4.243a1 1 0 1 0 1.414 1.414l4.243-4.243 4.243 4.243a1 1 0 1 0 1.414-1.414" fill="#333"/><path d="M18.157 16.243 13.914 12l4.243-4.243a1 1 0 0 0-1.414-1.414L12.5 10.586 8.257 6.343a1 1 0 0 0-1.414 1.414L11.086 12l-4.243 4.243a1 1 0 1 0 1.414 1.414l4.243-4.243 4.243 4.243a1 1 0 1 0 1.414-1.414" fill="#333"/></g></svg>