<?xml version="1.0" encoding="UTF-8"?>
<svg width="72px" height="72px" viewBox="0 0 72 72" version="1.1" xmlns="http://www.w3.org/2000/svg" xmlns:xlink="http://www.w3.org/1999/xlink">
    <title>Combined Shape</title>
    <g id="动态" stroke="none" stroke-width="1" fill="none" fill-rule="evenodd">
        <g id="08-发布动态" transform="translate(-120.000000, -441.000000)" fill="#ADADAD" fill-rule="nonzero">
            <g id="Group" transform="translate(56.000000, 377.000000)">
                <path d="M100,64 C100.68297,64 101.236627,64.5536566 101.236627,65.2366267 L101.236,98.763 L134.763373,98.7633733 C135.446343,98.7633733 136,99.3170299 136,100 C136,100.68297 135.446343,101.236627 134.763373,101.236627 L101.236,101.236 L101.236627,134.763373 C101.236627,135.446343 100.68297,136 100,136 C99.3170299,136 98.7633733,135.446343 98.7633733,134.763373 L98.763,101.236 L65.2366267,101.236627 C64.5536566,101.236627 64,100.68297 64,100 C64,99.3170299 64.5536566,98.7633733 65.2366267,98.7633733 L98.763,98.763 L98.7633733,65.2366267 C98.7633733,64.5536566 99.3170299,64 100,64 Z" id="Combined-Shape"></path>
            </g>
        </g>
    </g>
</svg>